<svg xmlns:dc="http://purl.org/dc/elements/1.1/" xmlns:cc="http://creativecommons.org/ns#" xmlns:rdf="http://www.w3.org/1999/02/22-rdf-syntax-ns#" xmlns:svg="http://www.w3.org/2000/svg" xmlns="http://www.w3.org/2000/svg" xmlns:sodipodi="http://sodipodi.sourceforge.net/DTD/sodipodi-0.dtd" xmlns:inkscape="http://www.inkscape.org/namespaces/inkscape" version="1.1" x="0px" y="0px" viewBox="0 0 100 125"><g transform="translate(0,-952.36218)"><path style="opacity:1;color:#000000;fill:rgba(0, 128, 0, 1);stroke:none;stroke-width:3.99999927999999990;stroke-linecap:round;stroke-linejoin:round;stroke-miterlimit:4;stroke-opacity:1;stroke-dasharray:none;stroke-dashoffset:0;marker:none;visibility:visible;display:inline;overflow:visible;enable-background:accumulate" d="M 50 8 C 37.140464 8 24.907075 10.84273 14 16 C 12.195527 16.88474 9 18.18223 9 20 C 9 21.41893 10.032446 23.06489 11 25 L 11.84375 26.46875 C 23.406509 20.013731 34.599848 16 50 16 C 65.400152 16 76.593491 20.013731 88.15625 26.46875 L 89 25 C 89.967554 23.06489 91 21.41893 91 20 C 91 18.18223 87.804474 16.88474 86 16 C 75.092926 10.84273 62.859535 8 50 8 z M 50 20 C 35.302358 20 25.00596 23.658493 13.84375 29.90625 L 50 92 L 86.15625 29.90625 C 74.99404 23.658493 64.697642 20 50 20 z M 36 29 C 39.865994 29 43 32.134006 43 36 C 43 39.865994 39.865994 43 36 43 C 32.134006 43 29 39.865994 29 36 C 29 32.134006 32.134006 29 36 29 z M 64 29 C 67.865994 29 71 32.134006 71 36 C 71 39.865994 67.865994 43 64 43 C 60.134006 43 57 39.865994 57 36 C 57 32.134006 60.134006 29 64 29 z M 50 50 C 53.865994 50 57 53.134006 57 57 C 57 60.865994 53.865994 64 50 64 C 46.134006 64 43 60.865994 43 57 C 43 53.134006 46.134006 50 50 50 z " transform="translate(0,952.36218)"/></g></svg>